<svg xmlns="http://www.w3.org/2000/svg" width="149.48" height="38.63" viewBox="0 0 149.48 38.63"><g id="Finnish_Red_Cross" data-name="Finnish Red Cross"><polygon points="132.34 0 140.91 0 140.91 8.57 149.48 8.57 149.48 17.14 140.91 17.14 140.91 25.7 132.34 25.7 132.34 17.14 123.78 17.14 123.78 8.57 132.34 8.57 132.34 0 132.34 0 132.34 0 132.34 0" fill="#c00"/><g id="finnish_red_cross-2" data-name="finnish red cross"><path d="M63.6,38.44l-3.14-4.57,0-.1a3.07,3.07,0,0,0,2.14-3c0-2.5-1.6-3.42-4.06-3.42H54.7V38.44h2.22V34.28h1.31l2.6,4.16Zm-3.29-7.65c0,1.42-.69,1.85-2,1.85H56.92V28.93h1.39c1.31,0,2,.43,2,1.86Z" fill-rule="evenodd"/><path d="M68.08,38.63A13.5,13.5,0,0,0,71,38.29V36.87a11,11,0,0,1-2.34.28c-1.36,0-2.71-.38-2.85-2.25h5.82c.06-3.34-1-5-4-5-2.79,0-4.15,1.71-4.15,4.43,0,3.19,2.07,4.27,4.63,4.27Zm1.13-5.13H65.77c0-1.13.46-2.13,1.72-2.13,1.45,0,1.72,1.07,1.72,2.13Z" fill-rule="evenodd"/><path d="M80.27,38.23c0-.43,0-11.71,0-11.71h-2.2V30C77.48,30,77,30,76.7,30a4,4,0,0,0-4.28,4.37c0,2.84,2.06,4.23,4.66,4.23a17.75,17.75,0,0,0,3.19-.33Zm-2.2-1.36a8.1,8.1,0,0,1-1.39.07c-1.56,0-2-1.44-2-2.61,0-1.58.56-2.77,2.18-2.77.6,0,1.22.07,1.22.07v5.24Z" fill-rule="evenodd"/><path d="M91.4,28.88a15.22,15.22,0,0,1,2.11.18V27.39a15.46,15.46,0,0,0-2.77-.26c-3.24,0-5.87,1.77-5.87,5.75s2.63,5.75,5.87,5.75a15.46,15.46,0,0,0,2.77-.26V36.71a16.09,16.09,0,0,1-2.11.17c-2.72,0-4.1-1.09-4.1-4s1.38-4,4.1-4Z"/><path d="M99.6,31.88V30a5.16,5.16,0,0,0-3.17.83s0-.77,0-.77h-2v8.34h2.2v-6a5.33,5.33,0,0,1,2.92-.54Z"/><path d="M108.47,34.26a4.32,4.32,0,1,0-8.63,0,4,4,0,0,0,4.33,4.35,4.13,4.13,0,0,0,4.3-4.35Zm-2.29,0c0,1.83-.49,2.8-2,2.8s-2-1-2-2.8.5-2.81,2-2.81,2,1,2,2.81Z" fill-rule="evenodd"/><path d="M116.12,35.77c0-1.78-1.73-2.21-2.77-2.41-.79-.16-2-.29-2-1s1.08-.9,1.78-.9a14.69,14.69,0,0,1,2.41.26V30.18a17.53,17.53,0,0,0-2.85-.24c-1.48,0-3.59.5-3.59,2.58s2.09,2.33,2.54,2.44c1.3.3,2.14.33,2.14,1.13s-1.15,1-2,1a11.5,11.5,0,0,1-2.65-.4v1.57a14,14,0,0,0,3,.34c2.4,0,4-1.05,4-2.83Z"/><path d="M123.79,35.77c0-1.78-1.73-2.21-2.77-2.41-.79-.16-2-.29-2-1s1.08-.9,1.78-.9a14.86,14.86,0,0,1,2.42.26V30.18a17.67,17.67,0,0,0-2.85-.24c-1.49,0-3.59.5-3.59,2.58s2.09,2.33,2.54,2.44c1.3.3,2.13.33,2.13,1.13s-1.14,1-2,1a11.5,11.5,0,0,1-2.65-.4v1.57a13.93,13.93,0,0,0,3,.34c2.4,0,3.94-1.05,3.94-2.83Z"/><path d="M2.36,29v3.11H6.09v1.78H2.36v4.56H0V27.17H7.51V29Z"/><path d="M8.15,28.48V26.37h2.28v2.11Zm0,9.94V30h2.28v8.43Z"/><path d="M17.44,38.42V32.93a1.07,1.07,0,0,0-1.21-1.24,6.49,6.49,0,0,0-2.1.48v6.25H11.85V30H13.9v.75a8.26,8.26,0,0,1,3.23-.88,2.44,2.44,0,0,1,2.59,2.63v5.93Z"/><path d="M26.68,38.42V32.93a1.07,1.07,0,0,0-1.2-1.24,6.5,6.5,0,0,0-2.11.48v6.25H21.09V30h2.06v.75a8.21,8.21,0,0,1,3.23-.88A2.44,2.44,0,0,1,29,32.49v5.93Z"/><path d="M30.33,28.48V26.37h2.28v2.11Zm0,9.94V30h2.28v8.43Z"/><path d="M36.61,38.59a15.77,15.77,0,0,1-3.1-.34V36.66a12.31,12.31,0,0,0,2.75.4c.85,0,2-.19,2-1s-.87-.86-2.22-1.15c-.46-.11-2.63-.49-2.63-2.47s2.18-2.6,3.73-2.6a17.56,17.56,0,0,1,3,.24v1.51a14,14,0,0,0-2.5-.28c-.73,0-1.85.13-1.85.92s1.24.9,2.06,1.06c1.07.21,2.87.64,2.87,2.44S39.11,38.59,36.61,38.59Z"/><path d="M47.21,38.42V33c0-.56-.21-1.33-1.19-1.33a7.27,7.27,0,0,0-2.19.48v6.25H41.55v-12h2.28v4.28a8,8,0,0,1,2.86-.81,2.53,2.53,0,0,1,2.8,2.65v5.93Z"/></g></g></svg>