<?xml version="1.0" encoding="UTF-8"?> <svg xmlns="http://www.w3.org/2000/svg" id="Layer_1" data-name="Layer 1" viewBox="0 0 130 68.27"><defs><style>.cls-1{fill:#f3b71b;}.cls-2{fill:#146182;}</style></defs><path className="cls-1" d="M74.89,105.85c-1,.1-2.09.15-3.13.15A31.88,31.88,0,0,1,40.53,80.13h0l-.12-.71A31.49,31.49,0,0,1,40,73.15a32.26,32.26,0,0,1,.39-4.25l.08-.49,0,0A31.86,31.86,0,0,1,71.76,41.75c1,0,2.09.06,3.13.16a32,32,0,0,1,7.65,1.71L83,42.51a34.31,34.31,0,0,0-10.16-2.6c-1.12-.11-2.26-.17-3.38-.17A34.26,34.26,0,0,0,36,66.81l-.07,0-.13.69a36.84,36.84,0,0,0,0,12.6l.14.82.08-.05A34.23,34.23,0,0,0,69.44,108c1.12,0,2.26-.06,3.38-.16A34.62,34.62,0,0,0,83,105.25l-.44-1.12a32,32,0,0,1-7.65,1.72" transform="translate(-35.2 -39.74)"></path><path className="cls-2" d="M90.33,83.28a7.71,7.71,0,0,0-4.08.92,3.25,3.25,0,0,0-1.51,3,3.15,3.15,0,0,0,2,3.18,6,6,0,0,0,1.74.43c.61,0,1.15.08,1.6.08a9.49,9.49,0,0,0,1.59-.14L93,90.51v-7l-1.36-.15a10.91,10.91,0,0,0-1.32-.08" transform="translate(-35.2 -39.74)"></path><path className="cls-2" d="M105.6,64.73c-.85.25-1.69.54-2.55.76s-1.54.33-2.31.47a.82.82,0,0,1-1-.63,3.82,3.82,0,0,0-1.53-1.88,5.21,5.21,0,0,1-2.5-3.06,1,1,0,0,0-.45-.48,2.58,2.58,0,0,1-1.34-2,4,4,0,0,0-1.15-2.38A20.24,20.24,0,0,1,90.94,53a1.45,1.45,0,0,1-.2-1.16,3.77,3.77,0,0,0,0-2.46c0-.12-.17-.3-.27-.31a11,11,0,0,0-2.78-.18,9.71,9.71,0,0,1-2.94.12,5.67,5.67,0,0,1-2.65-.87,1.14,1.14,0,0,0-1.84.75c-.06.32-.08.65-.11,1l-.23,0A5.71,5.71,0,0,1,77.06,49a6.69,6.69,0,0,0-2.85-1,1.73,1.73,0,0,1-1.38-.9,3,3,0,0,0,.93-2.52h-.53c-1.92,0-3.86,0-5.79,0a3.69,3.69,0,0,0-1.35.31,3.91,3.91,0,0,1-3.75.12.87.87,0,0,0-.46-.15.84.84,0,0,0-.52.15c-.81.7-1.57,1.46-2.4,2.13a3.18,3.18,0,0,0-1.2,1.81,2.38,2.38,0,0,1-1.92,2,2.91,2.91,0,0,0-2,1.54,3.22,3.22,0,0,1-1,1.17A2.78,2.78,0,0,0,51.67,55a7.72,7.72,0,0,1-.56,1.16A1.5,1.5,0,0,0,51,57.47,4.05,4.05,0,0,1,51,60a8.43,8.43,0,0,1-.73,1.78,2,2,0,0,0-.07,1.92,17.79,17.79,0,0,0,2.84,4.51,13.52,13.52,0,0,0,3.42,3.11,2.3,2.3,0,0,0,1.7.35A14.17,14.17,0,0,1,60,71.4c.84,0,1.68,0,2.52,0a1.12,1.12,0,0,0,.59-.19,5.52,5.52,0,0,1,3-1,1.6,1.6,0,0,1,1.63.79,1.47,1.47,0,0,0,1.62.77,6.59,6.59,0,0,1,1.09,0c1.14,0,1.65.62,1.51,1.76a4.8,4.8,0,0,1-.31,1.24A2.73,2.73,0,0,0,72.46,78,11.37,11.37,0,0,1,75.2,82.6c.57,1.49.7,2.91-.41,4.22,0,.05-.06.12-.1.17a3.82,3.82,0,0,0,.12,4.85,7.19,7.19,0,0,1,1.42,3.33,9.63,9.63,0,0,0,2,4.86,3.64,3.64,0,0,1,.85,2.57c0,.18.2.42.38.53a1.24,1.24,0,0,0,.67.12c1.71-.06,3.42-.15,5.14-.19a3.37,3.37,0,0,0,2.22-1,13.45,13.45,0,0,0,3.27-4.72,3.8,3.8,0,0,1,.4-.68c-.44,0-.88,0-1.33,0a24.28,24.28,0,0,1-4.93-.47,10.8,10.8,0,0,1-3.85-1.58,7.47,7.47,0,0,1-2.47-2.85,9.47,9.47,0,0,1-.87-4.27,7.81,7.81,0,0,1,1.08-4.24,8.4,8.4,0,0,1,2.79-2.74A12.54,12.54,0,0,1,85.43,79a20.11,20.11,0,0,1,4.22-.45c1,0,2.14,0,3.36.16v-.63a4.26,4.26,0,0,0-.42-2.06,3.12,3.12,0,0,0-1.15-1.24,4.76,4.76,0,0,0-1.83-.6,15.77,15.77,0,0,0-2.39-.16,17.18,17.18,0,0,0-3.81.45,2.86,2.86,0,0,1-3.35-1.91v0l0,0a2.8,2.8,0,0,1,2-3.55c.74-.18,1.49-.33,2.24-.45a27,27,0,0,1,4.31-.37c3.65,0,6.51.87,8.57,2.63a8.32,8.32,0,0,1,2.52,4.12c.22-.18.43-.38.66-.55a15,15,0,0,0,5.07-6.56,9,9,0,0,0,.69-3.14,5.42,5.42,0,0,0-.55.07" transform="translate(-35.2 -39.74)"></path><path className="cls-2" d="M107.73,84.61a5.72,5.72,0,0,0,2.2,4.59,8.91,8.91,0,0,0,5.27,1.42,19.39,19.39,0,0,0,3.67-.35c.45-.08.89-.17,1.32-.28a2.67,2.67,0,0,1,3.22,1.81l0,0c0,.2.11.41.15.63a2.74,2.74,0,0,1-2,3.27,27.53,27.53,0,0,1-7,.84,18,18,0,0,1-6.51-1,11.38,11.38,0,0,1-4.42-2.93,11.67,11.67,0,0,1-2.54-4.45,18.68,18.68,0,0,1-.81-5.63,18.4,18.4,0,0,1,.84-5.64,12.94,12.94,0,0,1,2.51-4.59,12,12,0,0,1,4.1-3.08,13.46,13.46,0,0,1,5.72-1.13,12.16,12.16,0,0,1,5.06,1,11.27,11.27,0,0,1,3.77,2.74,11.64,11.64,0,0,1,2.34,4.13,16.27,16.27,0,0,1,.79,5.14c0,.67,0,1.33-.08,2s-.12,1.17-.18,1.55Zm10.69-5.21a6.66,6.66,0,0,0-1.4-4.09,4.44,4.44,0,0,0-3.61-1.55,5.2,5.2,0,0,0-4,1.47,6.9,6.9,0,0,0-1.63,4.17Z" transform="translate(-35.2 -39.74)"></path><path className="cls-2" d="M145.21,90a1.86,1.86,0,0,1,2.31,1.1c.1.26.19.54.28.83a10.17,10.17,0,0,1,.36,1.87,1.85,1.85,0,0,1-1.28,1.91,14.25,14.25,0,0,1-2.61.59,29.76,29.76,0,0,1-3.84.24,15.1,15.1,0,0,1-6-1.08,11.47,11.47,0,0,1-4.19-3,12.87,12.87,0,0,1-2.5-4.51,19.25,19.25,0,0,1,0-11.25,12.78,12.78,0,0,1,2.47-4.53,11.6,11.6,0,0,1,4.14-3.06,13.87,13.87,0,0,1,5.74-1.1c.77,0,1.48,0,2.13,0a13.7,13.7,0,0,1,1.87.21,14.63,14.63,0,0,1,1.8.42h0a2.55,2.55,0,0,1,1.76,2.92c0,.16-.06.32-.09.48l-.09.4a2.57,2.57,0,0,1-3.06,1.87c-.21,0-.42-.08-.62-.11a16.84,16.84,0,0,0-2.71-.19,5.85,5.85,0,0,0-4.93,2.14,9.77,9.77,0,0,0-1.66,6.09q0,4.26,1.8,6.21a6.23,6.23,0,0,0,4.84,2c.53,0,1,0,1.45,0a9.09,9.09,0,0,0,1.29-.13,8,8,0,0,0,1.29-.31Z" transform="translate(-35.2 -39.74)"></path><path className="cls-2" d="M149.68,68.94V67.62a12.41,12.41,0,0,1,.77-4.5,8.84,8.84,0,0,1,2.19-3.32,9.81,9.81,0,0,1,3.4-2.06,12.79,12.79,0,0,1,4.34-.7,22.32,22.32,0,0,1,2.67.13h0a2.45,2.45,0,0,1,2.12,2.71c-.05.32-.1.62-.14.92a13.91,13.91,0,0,1-.36,1.55,1.39,1.39,0,0,1-1.62,1,8.4,8.4,0,0,0-1.68-.13,4.87,4.87,0,0,0-3,.87c-.77.58-1.19,1.81-1.26,3.71v1.16h4.95a1.58,1.58,0,0,1,1.57,1.43.31.31,0,0,0,0,.1c0,.46,0,.93,0,1.42s0,.9,0,1.32a1.55,1.55,0,0,1-1.55,1.42h-5V92.76a3.71,3.71,0,0,1-3.66,3.74h-.12a3.72,3.72,0,0,1-3.66-3.74Z" transform="translate(-35.2 -39.74)"></path></svg> 